<?xml version="1.0" encoding="utf-8"?>
<!-- Generator: Adobe Illustrator 18.1.1, SVG Export Plug-In . SVG Version: 6.00 Build 0)  -->
<!DOCTYPE svg PUBLIC "-//W3C//DTD SVG 1.1//EN" "http://www.w3.org/Graphics/SVG/1.1/DTD/svg11.dtd">
<svg version="1.1" id="Layer_1" xmlns="http://www.w3.org/2000/svg" xmlns:xlink="http://www.w3.org/1999/xlink" x="0px" y="0px"
	 viewBox="0 303.6 612 186" enable-background="new 0 303.6 612 186" xml:space="preserve">
<g>
	<g>
		<path fill="#C0D330" d="M163.7,468.3h-138c-2,0-3.6-1.6-3.6-3.6V327c0.3-2,2-3.3,3.6-3.3h138c2,0,3.6,1.6,3.6,3.6v138
			C167.3,467,165.7,468.3,163.7,468.3z"/>
	</g>
	<g>
		<g>
			<path fill="#FFFFFF" d="M93.1,445.2c0.3,0.7,1,0.3,1.3,0l12.4-17.9c10.7-15.6,19.9-32.6,26.4-50.1l9.1-24.7c0.3-0.7-0.3-1.3-1-1
				l-25.4,7.2c-17.9,5.2-35.5,12.7-52.1,22.1l-18.6,11.1c-0.7,0.3-0.7,1-0.3,1.3l38.4,12.7l0,0"/>
		</g>
		<g>
			<path fill="#FFFFFF" d="M83,405.4c0.3,0,0.3,0.3,0.3,0.7"/>
		</g>
		<g>
			<g>
				<path fill="#ECECED" d="M83.7,406.1C83.7,406.1,83.7,405.8,83.7,406.1l58.6-54.4c0.3,0.3,0.3,0.3,0,0.7l-9.1,24.7
					c-6.5,17.3-15.3,34.2-26.4,50.1l-12.4,17.9c-0.3,0.7-1.3,0.7-1.3,0"/>
			</g>
		</g>
	</g>
	<g>
		<path fill="#FFFFFF" d="M229.5,356h40.7c14.6,0,22.5,9.4,22.5,19.9c0,9.8-6.2,16.3-13.3,17.9c8.1,1.3,15,9.4,15,19.2
			c0,11.7-7.8,20.8-22.5,20.8h-42.3V356H229.5z M266.6,387.2c5.5,0,9.1-3.6,9.1-8.5s-3.6-8.5-9.1-8.5h-20.8v16.9h20.8V387.2z
			 M267.3,419.4c6.2,0,10.1-3.3,10.1-9.1c0-4.9-3.6-9.1-10.1-9.1h-21.2v17.9h21.2V419.4z"/>
		<path fill="#FFFFFF" d="M306.7,356h30.6c24.4,0,41.3,15.6,41.3,38.7s-16.9,38.7-41.3,38.7h-30.6V356z M337.3,419.1
			c15.3,0,24.4-11.1,24.4-24.1c0-13.7-8.5-24.4-24.4-24.4H323v48.5H337.3z"/>
		<path fill="#FFFFFF" d="M419.9,356h36.5c16.9,0,26,11.4,26,25.1c0,13.3-9.4,25.1-26,25.1h-19.9v27.7h-16.6V356L419.9,356z
			 M454.1,370.6h-17.6v20.8h17.6c6.5,0,11.4-4.2,11.4-10.4C465.5,374.5,460.6,370.6,454.1,370.6z"/>
		<path fill="#FFFFFF" d="M492.2,377.4h14.6v7.8c3.9-4.9,11.1-9.1,17.9-9.1v14.3c-1-0.3-2.6-0.3-4.2-0.3c-4.9,0-11.4,2.9-14,6.5
			v37.1h-14.3V377.4z"/>
		<path fill="#FFFFFF" d="M530.3,405.4c0-16,11.1-29.3,29.6-29.3c18.6,0,29.9,13.3,29.9,29.3S578.7,435,559.9,435
			C541.7,435.1,530.3,421.4,530.3,405.4z M574.6,405.4c0-8.8-5.2-16.3-14.3-16.3s-14.3,7.5-14.3,16.3s5.2,16.3,14.3,16.3
			S574.6,414.2,574.6,405.4z"/>
	</g>
</g>
</svg>
